PathFileType	4	(X/Y/Z)	/Users/niels/Desktop/University/Third Semester/Perception and Action/Exam/Gymnastics Motion Tracking/Code for Gym Tracking/Analyzed Data/Backflip/id2_2_pure_Sports2D/id2_2_pure_Sports2D_px_person00.trc
DataRate	CameraRate	NumFrames	NumMarkers	Units	OrigDataRate	OrigDataStartFrame	OrigNumFrames
59.925093632958806	59.925093632958806	8	22	m	59.925093632958806	0	241
Frame#	Time	Hip			RHip			RKnee			RAnkle			RBigToe			RSmallToe			RHeel			LHip			LKnee			LAnkle			LBigToe			LSmallToe			LHeel			Neck			Head			Nose			RShoulder			RElbow			RWrist			LShoulder			LElbow			LWrist		
		X1	Y1	Z1	X2	Y2	Z2	X3	Y3	Z3	X4	Y4	Z4	X5	Y5	Z5	X6	Y6	Z6	X7	Y7	Z7	X8	Y8	Z8	X9	Y9	Z9	X10	Y10	Z10	X11	Y11	Z11	X12	Y12	Z12	X13	Y13	Z13	X14	Y14	Z14	X15	Y15	Z15	X16	Y16	Z16	X17	Y17	Z17	X18	Y18	Z18	X19	Y19	Z19	X20	Y20	Z20	X21	Y21	Z21	X22	Y22	Z22
0	0.0	1.0242439697020875	-0.5384537481690029	0.0	1.0211534621412302	-0.535312741119409	0.0	1.013304424457162	-0.6335430174414649	0.0	0.9962302638049473	-0.722327923998005	0.0	1.0258013542400002	-0.726955807792611	0.0	1.021101541110456	-0.7300798618479701	0.0	0.9915542562644776	-0.7285778272611493	0.0	1.025801775296951	-0.535311969972513	0.0	1.0164563274302905	-0.6319838810710373	0.0	1.00093605608551	-0.7176274045627753	0.0	1.0320875791417357	-0.7238211184797658	0.0	1.022718078809975	-0.7207004287412099	0.0	0.9884337713414802	-0.7254263595981926	0.0	1.0227260007391497	-0.4060053145520069	0.0	1.0351493276113755	-0.34523387941992956	0.0	1.0429072088055589	-0.37637273267784005	0.0	1.018043357071127	-0.41217319115347917	0.0	1.0476618468856593	-0.34975810254606315	0.0	1.060108250810304	-0.29515294739403025	0.0	1.022715806220816	-0.4138002708795515	0.0	1.0444857543170205	-0.3513738158181725	0.0	1.0522704349813239	-0.30404317505517836	0.0
1	0.0166875	1.0242534961930048	-0.5382645416688943	0.0	1.0209412219237974	-0.5353897525195138	0.0	1.0135741795621875	-0.6335923998007059	0.0	0.9960187706154503	-0.722454708409173	0.0	1.026066288379301	-0.7270140679312461	0.0	1.0213000924140734	-0.7301036232744397	0.0	0.991522561755214	-0.7289430354665543	0.0	1.0257391954617592	-0.535427101995265	0.0	1.016752335799601	-0.6323683142188932	0.0	1.0008848084798667	-0.717741667725642	0.0	1.0324264762441153	-0.7238915741980839	0.0	1.0230978215635929	-0.7207896326781241	0.0	0.9882305156952711	-0.7254301722684687	0.0	1.022793271970172	-0.4050474662573324	0.0	1.0347778369418184	-0.3453903314195587	0.0	1.0433322557154987	-0.37608497168728183	0.0	1.0182143694634267	-0.4119392893426791	0.0	1.047845947742726	-0.3494856290956275	0.0	1.0599414375892005	-0.2945663833840459	0.0	1.022701716960897	-0.4135439238838283	0.0	1.044444794082687	-0.3533524595649494	0.0	1.0518044038569216	-0.31317564476584575	0.0
2	0.033375	1.024251200161805	-0.5381049167027951	0.0	1.0207397089025805	-0.5354883844617441	0.0	1.0138507337176772	-0.6336579452817037	0.0	0.9958082874277786	-0.7225919430940341	0.0	1.026317026986265	-0.7270591261511864	0.0	1.0214784948402318	-0.7301201970829703	0.0	0.9914889683728926	-0.729281855458639	0.0	1.0256664090906409	-0.5355552737382624	0.0	1.017033885864379	-0.6327462196958762	0.0	1.0008100267851945	-0.7178839759927154	0.0	1.0327330493492215	-0.7239787452006808	0.0	1.0234374981470657	-0.7209043572001191	0.0	0.9879987662168074	-0.7254487777122663	0.0	1.0228660652412445	-0.4041225813527672	0.0	1.0344359111020134	-0.34553724905882455	0.0	1.0437557096493	-0.3758075700871593	0.0	1.0183864653722934	-0.411716797260118	0.0	1.0480230315614736	-0.3492229088229081	0.0	1.0597942397062943	-0.2940076018165267	0.0	1.0226991940471184	-0.413297318389822	0.0	1.0444038299567928	-0.3553632546464513	0.0	1.0513716412218526	-0.32262302377126234	0.0
3	0.0500625	1.0242264125195244	-0.5379930346605053	0.0	1.0205536160042066	-0.5356179452933518	0.0	1.0141304883214126	-0.6337445436033322	0.0	0.9956062885646337	-0.7227364445882563	0.0	1.0265420701568975	-0.727072052239891	0.0	1.0216197523623003	-0.7301139849294472	0.0	0.9914584425707236	-0.7295670684628398	0.0	1.025574988648156	-0.535701012311057	0.0	1.0172959772682977	-0.6331062674422752	0.0	1.000710234919674	-0.7180568637368172	0.0	1.0329944733972152	-0.7240789479347669	0.0	1.0237177991336437	-0.7210422240670674	0.0	0.987739819915588	-0.7254785227670839	0.0	1.0229488877441135	-0.40326059116478125	0.0	1.0341347812418134	-0.3456767032073606	0.0	1.044162611291912	-0.37554946611474704	0.0	1.0185596096291887	-0.41151346751184614	0.0	1.0481895969152846	-0.3489712818916907	0.0	1.0596837935740606	-0.29349011183266677	0.0	1.0227184219294776	-0.4130749795375093	0.0	1.044357193101407	-0.3574228508183222	0.0	1.0509924509975952	-0.33305790482753905	0.0
4	0.06675	1.0241690681322089	-0.5379264976049355	0.0	1.0203812376651349	-0.535767082261973	0.0	1.0144089299576273	-0.6338385394352477	0.0	0.9954220923065477	-0.7228682592135398	0.0	1.026735230472177	-0.7270233869304269	0.0	1.0217137686863484	-0.7300594296928132	0.0	0.9914351579457809	-0.7297651347905555	0.0	1.0254585465598662	-0.5358534093233163	0.0	1.0175419174575404	-0.6334268730424683	0.0	1.0005934902347169	-0.7182365039928007	0.0	1.0332055265451094	-0.7241676133214761	0.0	1.0239331492310801	-0.7211794349212881	0.0	0.9874725444642232	-0.7254957881695635	0.0	1.0230391103747873	-0.4024774104422415	0.0	1.033876886669927	-0.34580513735861107	0.0	1.0445328970991758	-0.3753107722406689	0.0	1.0187304608180163	-0.41132925965034006	0.0	1.0483450442576379	-0.3487246540929854	0.0	1.0596205732149928	-0.29301668374695655	0.0	1.0227621084193708	-0.412882456336368	0.0	1.0443012014824222	-0.35950348236493085	0.0	1.050678739596026	-0.34489461659600223	0.0
5	0.0834375	1.0240718964511641	-0.5378882751390041	0.0	1.020219217541779	-0.5359131819904077	0.0	1.0146817582589867	-0.6339171055289595	0.0	0.9952640696834074	-0.7229629438727824	0.0	1.0268962793580112	-0.7268848107385939	0.0	1.0217588684055514	-0.7299318736922552	0.0	0.991421920436642	-0.7298480749692625	0.0	1.025315562760252	-0.5359934168402624	0.0	1.0177797179124597	-0.6336838600978728	0.0	1.000472580210762	-0.7183896020221404	0.0	1.0333659282079564	-0.7242139650485322	0.0	1.0240898693471159	-0.7212850860083846	0.0	0.987219494156696	-0.7254723553630007	0.0	1.02313000014627	-0.40177335171909156	0.0	1.0336626540170197	-0.34591092315902217	0.0	1.0448508925394675	-0.37508412695529314	0.0	1.0188925898191827	-0.41115988494758415	0.0	1.0484898642729745	-0.34847384786843283	0.0	1.0596072866593012	-0.29258365559403465	0.0	1.0228281522359965	-0.4127171132422929	0.0	1.0442364398709774	-0.36150667593867836	0.0	1.050435618566997	-0.35818157841691267	0.0
6	0.100125	1.0239338929407085	-0.5378568513387614	0.0	1.0200652541521162	-0.5360343004417	0.0	1.0149441505596646	-0.6339596466568613	0.0	0.9951368615473215	-0.7230064671877738	0.0	1.0270299220130004	-0.7266477373532777	0.0	1.0217618162242803	-0.7297232580929345	0.0	0.9914207023949647	-0.72980764430276	0.0	1.0251524291172134	-0.5361028150456235	0.0	1.018016734754168	-0.6338596174560793	0.0	1.000361481963591	-0.7184927679785892	0.0	1.0334790663307123	-0.7242002453732697	0.0	1.024202987585251	-0.7213399460157318	0.0	0.9869981746302783	-0.7253943435058963	0.0	1.0232156507571002	-0.40113822275163247	0.0	1.0334929237520323	-0.3459739787554199	0.0	1.0451121116509443	-0.3748566492956376	0.0	1.019037746146842	-0.4109997492444058	0.0	1.0486237864967962	-0.3482118419890335	0.0	1.0596410099291065	-0.2921861030626363	0.0	1.0229140442915843	-0.4125691923815487	0.0	1.0441699878394024	-0.36323898486481515	0.0	1.0502651458141745	-0.37248665793953806	0.0
7	0.11681250000000001	1.0237632003811954	-0.537812538406308	0.0	1.0199187554665576	-0.5361146278912512	0.0	1.0151910264366932	-0.6339532124919799	0.0	0.9950421392686288	-0.7229997762442973	0.0	1.0271441217815398	-0.7263320721966785	0.0	1.0217373182352834	-0.7294488130264675	0.0	0.9914329753995664	-0.7296599307321223	0.0	1.0249828620902577	-0.5361687485591836	0.0	1.0182553515246986	-0.633946723027506	0.0	1.0002717910241434	-0.7185414302251193	0.0	1.0335531962621607	-0.7241316164065102	0.0	1.024290700343225	-0.721345797767543	0.0	0.9868198361288495	-0.7252688979928359	0.0	1.0232930002733174	-0.4005545370484218	0.0	1.033366136146006	-0.3459701061542062	0.0	1.0453238190034617	-0.3746115124051545	0.0	1.0191572113132044	-0.410840721013749	0.0	1.0487451091726285	-0.347936718710532	0.0	1.0597149933661885	-0.2918220272114243	0.0	1.023017180941918	-0.4124224888693153	0.0	1.0441139145944176	-0.3643914982204939	0.0	1.0501675521749907	-0.3867738047822002	0.0
